<?xml version="1.0" encoding="iso-8859-1"?>
<!-- Uploaded to: SVG Repo, www.svgrepo.com, Generator: SVG Repo Mixer Tools -->
<svg fill="#000000" height="800px" width="800px" version="1.1" id="Layer_1" xmlns="http://www.w3.org/2000/svg" xmlns:xlink="http://www.w3.org/1999/xlink" 
	 viewBox="0 0 512 512" xml:space="preserve">
<g>
	<g>
		<path d="M186.72,404.137h-10.815c-4.199,0-7.604,3.405-7.604,7.604c0,4.199,3.405,7.604,7.604,7.604h10.815
			c4.199,0,7.604-3.405,7.604-7.604C194.324,407.541,190.919,404.137,186.72,404.137z"/>
	</g>
</g>
<g>
	<g>
		<path d="M512,332.006c0-7.513-2.27-14.882-6.443-21.077c3.697-6.589,5.8-14.152,5.8-22.134c0-10.998-3.932-21.094-10.462-28.961
			c2.704-4.658,4.16-9.976,4.16-15.436c0-7.59-2.726-14.703-7.613-20.255c4.083-4.953,5.896-9.937,5.414-14.832
			c-0.657-6.677-6.276-10.866-6.379-10.938c-6.801-4.719-12.264-6.855-17.083-8.738c-6.272-2.452-11.688-4.57-20.571-12.256
			c-8.885-7.686-11.759-12.741-15.087-18.595c-2.557-4.498-5.457-9.596-11.104-15.648c-0.086-0.092-7.656-7.756-15.255-4.176
			c-1.358-8.311-10.883-11.342-11.004-11.372c-8.024-2.034-13.888-2.118-19.062-2.193c-6.734-0.096-12.549-0.18-23.563-4.263
			c-11.015-4.082-15.481-7.808-20.649-12.123c-3.973-3.315-8.476-7.073-15.888-10.759c-0.112-0.056-9.365-5.596-15.018,0.964
			c-3.979-7.093-13.855-6.455-13.98-6.442c-8.231,0.881-13.759,2.84-18.637,4.567c-6.347,2.249-11.829,4.191-23.575,4.191
			c-11.747,0-17.229-1.943-23.575-4.191c-4.878-1.729-10.405-3.686-18.637-4.567c-0.125-0.013-10.001-1.495-13.98,6.442
			c-6.499-6.498-14.906-1.021-15.018-0.964c-7.412,3.686-11.915,7.444-15.887,10.759c-4.453,3.716-8.297,6.925-16.25,10.364
			c-3.855,1.668-5.339,6.03-3.961,9.998c2.206,6.348,9.014,4.386,9.998,3.961c9.971-4.313,15.277-8.74,19.957-12.646
			c3.758-3.136,7.011-5.85,12.67-8.696c0.1-0.034,0.19-0.055,0.181-0.064c4.178,7.908,4.686,36.174,4.686,36.174
			c-14.478,1.434-26.81,11.144-31.886,24.417c-5.117-2.509-10.827-3.899-16.78-3.899c-9.835,0-18.811,3.748-25.576,9.89
			c0,0-12.409-36.205-12.307-36.247c6.146-1.529,10.381-1.59,15.274-1.66c2.956-0.043,6.012-0.086,9.555-0.467
			c4.176-0.448,7.196-4.197,6.748-8.372c-0.448-4.175-4.199-7.2-8.372-6.748c-2.842,0.305-5.419,0.343-8.148,0.381
			c-5.175,0.074-11.039,0.158-19.063,2.193c-0.123,0.031-8.126,2.555-11.004,11.372c-1.156-0.318-2.33-0.452-3.511-0.563
			c-6.961-0.651-11.657,4.647-11.744,4.739c-5.648,6.052-8.548,11.149-11.105,15.648c-3.328,5.854-6.204,10.909-15.087,18.595
			c-8.883,7.686-14.299,9.803-20.571,12.256c-4.819,1.884-10.282,4.02-17.083,8.738c-0.103,0.072-5.722,3.416-6.379,10.938
			c-0.428,4.903,1.333,9.886,5.423,14.843c-4.848,5.555-7.622,12.746-7.622,20.244c0,5.451,1.453,10.779,4.157,15.44
			c-6.527,7.867-10.458,17.962-10.458,28.958c0,7.988,2.104,15.556,5.801,22.146C2.27,317.134,0,324.471,0,332.006
			c0,15.44,9.423,29.073,23.235,34.814c-0.557,2.898-1.072,5.805-1.52,8.73l-0.046,0.303c-0.549,3.749-2.143,19.625,7.906,31.376
			c6.876,8.04,17.288,12.117,30.946,12.117h92.824c4.199,0,7.604-3.405,7.604-7.604s-3.405-7.604-7.604-7.604H60.522
			c-9.01,0-15.533-2.285-19.39-6.794c-6.218-7.27-4.475-18.917-4.397-19.409l0.057-0.373
			C53.339,270.566,147.525,189.916,256,189.916c108.495,0,202.695,80.678,219.216,187.702l0.049,0.317
			c0.077,0.492,1.824,12.133-4.396,19.406c-3.856,4.509-10.379,6.795-19.39,6.795H209.025c-4.199,0-7.604,3.405-7.604,7.604
			c0,4.199,3.405,7.604,7.604,7.604h242.454c13.661,0,24.072-4.078,30.949-12.121c10.042-11.746,8.456-27.603,7.901-31.382
			l-0.045-0.294c-0.448-2.923-0.962-5.83-1.519-8.725C502.658,361.055,512,347.37,512,332.006z M26.687,351.605
			c-6.917-3.897-11.479-11.305-11.479-19.599c0-2.922,0.588-5.786,1.67-8.453c4.573,3.853,9.923,6.826,15.805,8.64
			C30.41,338.564,28.408,345.04,26.687,351.605z M38.275,317.985c-13.02-3.461-22.425-15.389-22.425-29.19
			c0-16.391,13.125-29.765,29.417-30.186l16.026,17.965C52.252,289.586,44.541,303.46,38.275,317.985z M22.153,244.398
			c0-3.132,0.959-6.157,2.675-8.7l8.489,9.516c-3.623,1.06-7.057,2.559-10.245,4.439C22.471,247.979,22.153,246.202,22.153,244.398z
			 M72.565,261.64c-0.673,0.823-1.338,1.652-2,2.482c0,0-46.224-53.335-46.144-53.41c5.219-3.588,9.164-5.13,13.723-6.911
			c6.62-2.588,14.122-5.521,24.984-14.918c10.86-9.397,14.843-16.4,18.356-22.579c2.419-4.254,4.514-7.938,8.816-12.587
			c9.904,2.957,21.246,40.506,21.246,40.506c-0.652,1.873-1.159,3.81-1.513,5.801c-2.69-0.598-5.459-0.926-8.276-0.926
			c-20.999,0-38.084,17.084-38.084,38.083C63.673,246.195,66.858,254.831,72.565,261.64z M100.917,232.479
			C94.539,238,88.494,243.84,82.783,249.956c-2.518-3.739-3.901-8.175-3.901-12.776c0-12.613,10.262-22.875,22.876-22.875
			c5.584,0,10.884,2.037,14.999,5.614C111.319,223.868,106.03,228.051,100.917,232.479z M129.601,211.222
			c-1.529-1.64-3.189-3.133-4.961-4.466c0-0.018,0.003-0.036,0.003-0.055c-0.001-12.613,10.26-22.875,22.874-22.875
			c7.178,0,13.773,3.338,18.042,8.821C153.093,197.791,141.061,203.999,129.601,211.222z M180.203,187.162
			c-0.889-1.489-1.878-2.9-2.946-4.237c1.512-11.193,11.216-19.802,22.644-19.802c9.454,0,17.713,5.801,21.159,14.186
			C207.138,179.383,193.468,182.687,180.203,187.162z M256,174.708c-6.526,0-13.025,0.282-19.486,0.815
			c-0.455-1.594-1.007-3.144-1.656-4.641c3.552-8.601,11.811-14.145,21.142-14.145c11.313,0,20.727,8.256,22.55,19.057
			C271.082,175.079,263.558,174.708,256,174.708z M256,141.527c-12.544,0-23.921,6.028-30.953,15.887
			c-3.932-3.456-8.575-6.102-13.656-7.715c0,0.001,0.945-41.769,1.055-41.773c6.294,0.702,10.287,2.116,14.9,3.75
			c6.7,2.373,14.292,5.064,28.654,5.064s21.955-2.691,28.655-5.064c4.614-1.634,8.607-3.05,14.903-3.751
			c0.105,0.003,1.051,41.757,1.051,41.757c-5.056,1.59-9.707,4.227-13.684,7.744C280.005,147.808,268.726,141.527,256,141.527z
			 M334.866,188.216c-13.241-4.67-26.903-8.166-40.829-10.429c-0.081-1.71-0.284-3.389-0.584-5.034
			c4.299-6.051,11.175-9.63,18.647-9.63C324.713,163.124,336.095,174.246,334.866,188.216z M386.259,213.702
			c-11.72-7.71-24.07-14.339-36.895-19.833c0.339-1.609,0.567-3.242,0.693-4.893c4.072-3.318,9.132-5.149,14.426-5.149
			c12.613,0,22.876,10.261,22.876,22.875C387.359,209.104,386.979,211.459,386.259,213.702z M364.483,168.619
			c-5.884,0-11.604,1.351-16.775,3.892c-5.037-13.251-17.262-22.986-31.891-24.411c0,0-1.601-24.548,4.871-36.108
			c5.658,2.846,8.911,5.559,12.667,8.695c5.458,4.554,11.642,9.716,25.109,14.706c13.467,4.991,21.523,5.107,28.629,5.209
			c4.894,0.07,9.13,0.131,15.276,1.661c0.101,0.041-12.31,36.246-12.31,36.246C383.294,172.367,374.318,168.619,364.483,168.619z
			 M429.219,249.958c-5.712-6.117-11.758-11.956-18.135-17.479c-3.92-3.394-7.943-6.646-12.055-9.759
			c0.992-2.134,1.768-4.353,2.346-6.629c2.798-1.182,5.774-1.785,8.868-1.785c12.613,0,22.876,10.261,22.876,22.875
			C433.12,241.817,431.737,246.231,429.219,249.958z M439.431,261.635c5.712-6.79,8.895-15.367,8.895-24.456
			c0-20.999-17.085-38.083-38.084-38.083c-2.823,0-5.586,0.312-8.278,0.909c-0.354-1.986-0.861-3.92-1.511-5.787
			c0.002,0.002,9.791-28.927,21.251-40.5c4.3,4.649,6.394,8.331,8.812,12.584c3.513,6.178,7.495,13.181,18.356,22.579
			c10.862,9.396,18.364,12.331,24.985,14.918c4.558,1.782,8.504,3.324,13.725,6.914c0.077,0.071-46.147,53.408-46.147,53.408
			C440.771,263.288,440.105,262.459,439.431,261.635z M489.848,244.397c0,1.807-0.321,3.581-0.922,5.253
			c-3.188-1.879-6.622-3.376-10.243-4.437l8.493-9.52C488.897,238.227,489.848,241.228,489.848,244.397z M473.724,317.985
			c-6.265-14.524-13.976-28.398-23.018-41.41l16.026-17.965c16.291,0.421,29.417,13.795,29.417,30.186
			C496.149,302.586,486.741,314.523,473.724,317.985z M485.316,351.623c-1.722-6.572-3.726-13.053-6.001-19.432
			c5.888-1.817,11.242-4.795,15.817-8.654c1.083,2.656,1.66,5.507,1.66,8.468C496.792,340.265,492.27,347.712,485.316,351.623z"/>
	</g>
</g>
<g>
	<g>
		<path d="M252.144,291.653c-1.419-1.419-3.377-2.231-5.384-2.231c-1.998,0-3.955,0.811-5.373,2.231
			c-1.419,1.409-2.23,3.376-2.23,5.373c0,2.008,0.811,3.964,2.23,5.384c1.419,1.409,3.375,2.22,5.373,2.22
			c2.006,0,3.964-0.811,5.384-2.22c1.409-1.419,2.22-3.376,2.22-5.384C254.365,295.029,253.555,293.072,252.144,291.653z"/>
	</g>
</g>
<g>
	<g>
		<path d="M171.33,288.935c-1.419-1.419-3.377-2.23-5.384-2.23c-1.998,0-3.955,0.811-5.373,2.23
			c-1.419,1.409-2.231,3.376-2.231,5.373c0,2.007,0.811,3.964,2.231,5.384c1.419,1.409,3.375,2.22,5.373,2.22
			c2.006,0,3.964-0.811,5.384-2.22c1.409-1.419,2.22-3.376,2.22-5.384C173.551,292.311,172.741,290.354,171.33,288.935z"/>
	</g>
</g>
<g>
	<g>
		<path d="M347.962,344.237c-1.419-1.419-3.377-2.231-5.384-2.231c-1.998,0-3.955,0.811-5.373,2.231
			c-1.419,1.409-2.231,3.376-2.231,5.373c0,2.007,0.811,3.964,2.231,5.384c1.419,1.409,3.375,2.22,5.373,2.22
			c2.007,0,3.965-0.811,5.384-2.22c1.409-1.419,2.22-3.376,2.22-5.384C350.183,347.613,349.373,345.656,347.962,344.237z"/>
	</g>
</g>
<g>
	<g>
		<path d="M287.005,240.417c-1.419-1.419-3.377-2.23-5.384-2.23c-1.998,0-3.955,0.811-5.373,2.23
			c-1.419,1.409-2.231,3.376-2.231,5.373c0,2.007,0.811,3.964,2.231,5.384c1.419,1.409,3.375,2.22,5.373,2.22
			c2.007,0,3.964-0.811,5.384-2.22c1.409-1.419,2.22-3.376,2.22-5.384C289.225,243.794,288.415,241.837,287.005,240.417z"/>
	</g>
</g>
<g>
	<g>
		<path d="M203.168,353.015c-1.419-1.419-3.377-2.231-5.384-2.231c-1.998,0-3.955,0.811-5.373,2.231
			c-1.419,1.409-2.231,3.376-2.231,5.373c0,2.007,0.811,3.964,2.231,5.384c1.419,1.409,3.375,2.22,5.373,2.22
			c2.007,0,3.964-0.811,5.384-2.22c1.409-1.419,2.22-3.376,2.22-5.384C205.388,356.391,204.578,354.434,203.168,353.015z"/>
	</g>
</g>
<g>
	<g>
		<path d="M328.482,261.059c-13.226,0-23.986,10.76-23.986,23.986c0,13.226,10.76,23.986,23.986,23.986s23.986-10.76,23.986-23.986
			C352.468,271.819,341.708,261.059,328.482,261.059z M328.482,293.823c-4.84,0-8.778-3.938-8.778-8.778
			c0-4.84,3.938-8.778,8.778-8.778c4.841,0,8.778,3.938,8.778,8.778C337.26,289.885,333.322,293.823,328.482,293.823z"/>
	</g>
</g>
<g>
	<g>
		<path d="M286.479,325.625c-13.226,0-23.986,10.76-23.986,23.986c0,13.226,10.76,23.986,23.986,23.986s23.985-10.76,23.985-23.986
			C310.464,336.386,299.705,325.625,286.479,325.625z M286.479,358.388c-4.84,0-8.778-3.938-8.778-8.778s3.938-8.778,8.778-8.778
			c4.84,0,8.777,3.938,8.777,8.778S291.318,358.388,286.479,358.388z"/>
	</g>
</g>
<g>
	<g>
		<path d="M209.139,237.235c-13.226,0-23.986,10.76-23.986,23.986s10.76,23.986,23.986,23.986s23.986-10.76,23.986-23.986
			S222.365,237.235,209.139,237.235z M209.139,269.999c-4.84,0-8.778-3.938-8.778-8.778c0-4.84,3.938-8.778,8.778-8.778
			c4.84,0,8.778,3.938,8.778,8.778C217.917,266.061,213.979,269.999,209.139,269.999z"/>
	</g>
</g>
<g>
	<g>
		<path d="M443.982,325.914c-12.248-26.774-30.509-51.132-52.809-70.441c-3.173-2.748-7.975-2.404-10.726,0.771
			c-2.749,3.175-2.404,7.978,0.772,10.727c20.665,17.893,37.586,40.463,48.934,65.27c1.278,2.793,3.658,6.42,10.078,3.751
			C444.109,334.381,445.729,329.734,443.982,325.914z"/>
	</g>
</g>
<g>
	<g>
		<path d="M460.043,379.016c-1.456-9.149-3.558-18.29-6.247-27.169c-1.219-4.019-5.462-6.293-9.482-5.072
			c-4.02,1.218-6.291,5.463-5.073,9.482c2.49,8.22,4.554,16.664,5.782,25.15c1.077,7.441,8.301,6.379,8.705,6.314
			C457.875,387.06,460.702,383.163,460.043,379.016z"/>
	</g>
</g>
</svg>