<?xml version="1.0" encoding="iso-8859-1"?>
<!-- Uploaded to: SVG Repo, www.svgrepo.com, Generator: SVG Repo Mixer Tools -->
<svg fill="#000000" version="1.1" id="Layer_1" xmlns="http://www.w3.org/2000/svg" xmlns:xlink="http://www.w3.org/1999/xlink" 
	 viewBox="0 0 512 512" xml:space="preserve">
<g>
	<g>
		<path d="M399.346,244.506v47.389c0,71.805-58.418,130.224-130.224,130.224s-130.224-58.418-130.224-130.224v-60.803h64.595v38.739
			l-30.824,22.988v61.924h77.322v-61.924l-30.825-22.988v-54.412H108.408v15.673h14.818v60.803
			c0,80.448,65.448,145.897,145.897,145.897c80.448,0,145.897-65.449,145.897-145.897v-47.389H399.346z M234.318,300.683v38.386
			h-45.976v-38.386l22.988-17.144L234.318,300.683z"/>
	</g>
</g>
<g>
	<g>
		<rect x="233.796" y="215.416" width="195.396" height="15.673"/>
	</g>
</g>
<g>
	<g>
		<path d="M73.537,451.458v15.673h21.676L133.18,512h271.886l37.966-44.869h21.676v-15.673H73.537z M397.796,496.327H140.449
			l-24.703-29.195H422.5L397.796,496.327z"/>
	</g>
</g>
<g>
	<g>
		<path d="M335.624,55.472C316.324,33.544,279.835,0,237.287,0c-62.599,0-111.541,71.725-113.593,74.778l-2.939,4.373l2.939,4.373
			c2.052,3.053,50.994,74.778,113.593,74.778c42.165,0,78.366-32.915,97.855-54.925l58.478,11.721V55.472H335.624z M377.946,95.972
			l-48.708-9.763l-2.987,3.506c-16.843,19.762-50.796,52.914-88.964,52.914c-46.058,0-86.124-48.477-97.418-63.483
			c11.278-15.015,51.263-63.472,97.418-63.472c38.081,0,71.983,33.033,88.801,52.726l2.347,2.747h49.511V95.972z"/>
	</g>
</g>
<g>
	<g>
		<polygon points="246.875,71.314 215.052,39.491 203.967,50.573 224.708,71.314 174.446,71.314 174.446,86.988 255.035,86.988 
			235.243,106.779 246.326,117.861 277.201,86.988 312.81,86.988 312.81,71.314 		"/>
	</g>
</g>
<g>
	<g>
		<path d="M105.751,191.738c-32.235,0-58.459,26.225-58.459,58.459v24.161c0,32.234,26.225,58.459,58.459,58.459v-15.673
			c-23.592,0-42.785-19.194-42.785-42.785v-24.161c0-23.592,19.194-42.785,42.785-42.785h323.441v-15.673H105.751z"/>
	</g>
</g>
</svg>