<svg viewBox="0 0 431.93 187.63" xmlns="http://www.w3.org/2000/svg"><path d="m105.02 57.21c.09 0 .19-.02.28-.02-.09 0-.19.01-.28.02z"/><path d="m105.61 57.17c.21-.01.42-.02.64-.02-.21 0-.43 0-.64.02z"/><g fill="#2bc9af" opacity=".1"><circle cx="393.02" cy="121.96" r="12.42"/><path d="m358.28 108.96s-15.33-.19-16.89-.19c-6.92-.06-12.42-5.68-12.42-12.62s5.59-12.56 12.51-12.61h40.09c7.07 0 12.81-5.74 12.81-12.81v-.78c0-7.07-5.73-12.81-12.81-12.81h-39.59c7.07 0 12.81-5.73 12.81-12.81v-.19c0-7.07-5.73-12.81-12.81-12.81h-80.08c6.02-1.05 10.6-6.3 10.6-12.62v-.58c0-7.07-5.73-12.81-12.81-12.81h-140.13c-7.07 0-12.81 5.73-12.81 12.81v.58c0 6.32 4.58 11.57 10.6 12.62h-71.54c-7.07 0-12.81 5.73-12.81 12.81v.19c0 7.07 5.73 12.81 12.81 12.81h60.55c7.4 0 13.39 5.91 13.39 13.2s-5.8 13.2-13.2 13.2c-.04 0-1.94 0-2.47-.19h-85.83c-7.07 0-12.81 5.73-12.81 12.81s5.73 12.81 12.81 12.81h72.59c-7.07 0-12.81 5.73-12.81 12.81s5.73 12.81 12.81 12.81h267.44c7.07 0 12.81-5.73 12.81-12.81s-5.73-12.81-12.81-12.81z"/></g><rect fill="#2bc9af" height="24.84" rx="3.36" width="128.09" x="152.36" y="9.4"/><rect fill="#fff" height="145.95" rx="3.65" width="139.2" x="146.69" y="34.24"/><path d="m246.29 58.11c-.27 0-.55.01-.85.04-1.66.15-3.25.77-4.6 1.78-2.33 1.74-3.67 4.4-3.67 7.3 0 3.98 2.54 7.47 6.33 8.68.13.04.26.07.39.11-1.84 13.75-13.63 24.39-27.88 24.39s-26.18-10.77-27.91-24.63c.21-.08.41-.16.61-.25 3.26-1.47 5.37-4.74 5.37-8.31 0-2.52-1.07-4.96-2.93-6.68-1.24-1.15-2.77-1.93-4.41-2.26-.59-.12-1.19-.18-1.78-.18-5.03 0-9.12 4.09-9.12 9.12 0 4.59 3.43 8.48 7.98 9.05.15.02.29.03.44.04 1.99 15.75 15.47 27.98 31.75 27.98s29.82-12.28 31.77-28.08c.22-.04.43-.08.65-.13 4.11-.99 6.98-4.63 6.98-8.86 0-5.03-4.09-9.12-9.12-9.12zm-66.57 9.13c0-2.89 2.35-5.24 5.24-5.24.34 0 .69.03 1.03.1.94.19 1.81.64 2.53 1.3 1.09 1.01 1.68 2.37 1.68 3.84 0 2.05-1.21 3.92-3.09 4.77-.69.31-1.41.47-2.15.47-.19 0-.4-.01-.66-.05-2.61-.33-4.58-2.56-4.58-5.19zm67.8 5.09c-1.01.24-1.93.19-2.83-.1-2.17-.7-3.64-2.7-3.64-4.99 0-1.66.77-3.19 2.11-4.19.78-.58 1.69-.93 2.64-1.02.18-.02.34-.03.49-.03 2.89 0 5.24 2.35 5.24 5.24 0 2.43-1.65 4.52-4.01 5.09z" fill="#2bc9af"/><g fill="#444053"><path d="m94.13 152.24h-12.42c-1.5 0-2.72 1.22-2.72 2.72s1.22 2.72 2.72 2.72h12.42c1.5 0 2.72-1.22 2.72-2.72s-1.22-2.72-2.72-2.72z"/><path d="m282.44 32.69h-.43v-21.67c0-1.86-1.51-3.37-3.37-3.37h-126.02c-1.78 0-3.24 1.39-3.36 3.15v.15 21.79c-2.84.36-5.05 2.79-5.05 5.73v113.78h-40.7c-.46 0-.83.37-.83.83v3.77c0 .46.37.83.83.83h40.7v19.06c0 3.19 2.59 5.78 5.78 5.78h132.45c3.19 0 5.78-2.59 5.78-5.78v-138.27c0-3.19-2.59-5.78-5.78-5.78zm-6.32-21.15-12.88 11.56c-.46.41-.7 1.02-.63 1.64.06.62.42 1.17.95 1.48l11.12 6.47h-118.49l11.12-6.47c.54-.31.89-.86.95-1.48s-.17-1.23-.63-1.64l-12.88-11.56zm1.61 3.77v14.68l-9.92-5.78zm-124.6 0 9.92 8.9-9.92 5.78zm131.2 161.44c0 1.05-.85 1.9-1.9 1.9h-132.44c-1.05 0-1.9-.85-1.9-1.9v-138.28c0-1.05.85-1.9 1.9-1.9h132.45c1.05 0 1.9.85 1.9 1.9v138.27z"/><rect height="5.43" rx="1.72" width="43.47" x="294.04" y="152.24"/><rect height="5.43" rx="2.13" width="9.7" x="342.17" y="152.24"/></g></svg>